HIERARCHY
ROOT simHips
{
  OFFSET -17.6763 97.9361 0.836151
  CHANNELS 6 Xposition Yposition Zposition Zrotation Xrotation Yrotation
  JOINT simSpine
  {
    OFFSET -0.000355721 21.3001 -0.016921
    CHANNELS 3 Zrotation Xrotation Yrotation
    JOINT simLeftArm
    {
      OFFSET 13.5181 21.3012 0
      CHANNELS 3 Zrotation Xrotation Yrotation
      JOINT simLeftForeArm
      {
        OFFSET 24.5783 0 0
        CHANNELS 3 Zrotation Xrotation Yrotation
        JOINT simLeftHand
        {
          OFFSET 24.5783 0 0
          CHANNELS 3 Zrotation Xrotation Yrotation
          End Site
          {
            OFFSET 7.32568 1.52588e-005 0.0169305
          }
        }
      }
    }
    JOINT simHead
    {
      OFFSET 0 27.4458 -0.00489235
      CHANNELS 3 Zrotation Xrotation Yrotation
      End Site
      {
        OFFSET 0 0 0
      }
    }
    JOINT simRightArm
    {
      OFFSET -13.5174 21.3012 0
      CHANNELS 3 Zrotation Xrotation Yrotation
      JOINT simRightForeArm
      {
        OFFSET -24.5783 0 0
        CHANNELS 3 Zrotation Xrotation Yrotation
        JOINT simRightHand
        {
          OFFSET -24.5783 0 0
          CHANNELS 3 Zrotation Xrotation Yrotation
          End Site
          {
            OFFSET -7.32568 1.52588e-005 0.0169305
          }
        }
      }
    }
  }
  JOINT simRightUpLeg
  {
    OFFSET -8.44614 -9.41038 0.835684
    CHANNELS 3 Zrotation Xrotation Yrotation
    JOINT simRightLeg
    {
      OFFSET 0 -40.9639 0
      CHANNELS 3 Zrotation Xrotation Yrotation
      JOINT simRightFoot
      {
        OFFSET 0 -40.9639 0
        CHANNELS 3 Zrotation Xrotation Yrotation
        End Site
        {
          OFFSET 0.50614 -9.67405 14.6709
        }
      }
    }
  }
  JOINT simLeftUpLeg
  {
    OFFSET 8.44614 -9.41038 0.835684
    CHANNELS 3 Zrotation Xrotation Yrotation
    JOINT simLeftLeg
    {
      OFFSET 0 -40.9639 0
      CHANNELS 3 Zrotation Xrotation Yrotation
      JOINT simLeftFoot
      {
        OFFSET 0 -40.9639 0
        CHANNELS 3 Zrotation Xrotation Yrotation
        End Site
        {
          OFFSET -0.50614 -9.67405 14.6709
        }
      }
    }
  }
}
MOTION
Frames:	9
Frame Time:	0.0333333
-52.1503 92.9677 -81.5821 3.36939 1.2125 107.988 2.88027 18.3964 19.0715 -65.4782 49.335 -10.9886 -2.81448 5.54067 -14.9127 2.42004 1.13002 -15.8269 -32.0564 6.11697 68.2385 43.4869 6.41175 20.0133 -0.354181 5.20488 25.4194 -12.2307 8.17823 16.2552 1.64178 5.06509 -21.2366 2.06815 32.8558 -4.32954 -3.35912 -23.1477 3.18043 -19.9048 -20.7271 -6.61871 -0.770044 16.5265 -2.42928 0.151621 -7.41554 -15.064 
-54.3912 94.321 -83.2327 2.8341 1.08933 108.438 2.38854 17.6942 19.2107 -63.2536 49.5551 -11.7563 -3.13456 5.44299 -15.9045 1.82532 1.00825 -15.4825 -30.4177 6.55706 67.1509 47.119 6.54155 16.2708 1.4149 4.71921 20.711 -10.0984 6.82115 14.3149 1.06996 4.9358 -20.7526 1.2881 28.7431 -3.34471 -2.98584 -20.2215 2.35946 -17.7749 -23.1117 -7.11278 -1.87721 25.7823 -1.01452 1.22918 -8.11764 -5.70885 
-56.5692 95.4211 -84.9622 2.09619 0.951605 107.976 1.71697 16.6108 19.6143 -62.5515 47.7413 -11.0966 -3.30466 5.0452 -15.5219 1.24298 0.855342 -14.047 -29.616 6.72365 66.6158 50.3338 8.07166 12.3728 3.48257 3.27772 17.5223 -7.85947 5.19543 12.3153 0.135087 4.61005 -20.0596 0.783146 24.8267 -2.55695 -2.89631 -17.5211 1.7911 -14.7518 -25.7708 -9.02732 -3.80291 35.8285 0.00502824 2.72794 -9.14642 0.747782 
-58.6581 96.1587 -86.7449 1.26829 0.832161 107.004 0.964053 15.545 19.7544 -62.7582 44.4123 -9.63708 -3.10166 4.42434 -14.4479 0.77389 0.471045 -12.9925 -29.3753 6.52215 66.3463 53.0823 10.872 8.90224 4.601 2.55616 15.845 -6.34044 4.27508 11.0381 -0.876113 4.31224 -19.0497 0.413686 20.9065 -2.05486 -3.00929 -15.3433 1.32335 -11.0012 -28.0149 -11.4757 -7.19292 45.7551 1.37898 3.77967 -9.36181 4.38145 
-60.5771 96.5425 -88.5287 0.344811 0.701684 105.979 0.168043 14.5192 19.5502 -62.7322 41.4473 -8.55318 -2.48316 4.13161 -13.3001 0.942101 0.31351 -12.7217 -29.3395 6.20191 66.4334 55.4073 14.281 6.09143 4.98695 2.7849 15.0676 -6.12967 4.39534 10.7273 -1.71625 4.34136 -17.2428 -0.0676972 16.4485 -1.53422 -2.39448 -13.9231 0.935879 -7.25333 -29.0759 -13.6909 -10.1655 54.1084 2.89492 3.86987 -8.66893 6.59341 
-62.3577 96.6186 -90.3015 -0.590427 0.554454 104.97 -0.422233 13.5594 19.3313 -62.2326 39.3591 -8.1618 -1.93151 3.95427 -12.4079 1.69906 0.453578 -12.7548 -29.7048 6.22612 66.7851 57.3911 17.5419 3.47393 4.93143 3.54379 14.748 -6.85973 5.18375 10.994 -2.57037 4.70632 -15.5435 -0.556839 11.6355 -1.06362 -1.67469 -12.8408 0.791431 -2.45481 -28.7008 -14.9292 -14.5389 59.4759 6.14432 4.08105 -8.0364 8.93825 
-64.1061 96.3191 -92.0876 -1.6069 0.381378 104.244 -0.442336 12.4239 19.0736 -61.6482 38.5862 -8.21817 -1.58358 3.82645 -11.9807 2.66964 0.808173 -12.6561 -30.6153 6.86555 67.0234 59.078 19.3031 0.482842 4.59167 4.32859 14.3604 -7.33005 5.76724 11.2567 -3.6809 4.85382 -14.4445 -0.922446 7.39348 -0.536575 -0.454116 -12.446 1.05672 3.11243 -27.4595 -15.2261 -19.757 61.7828 10.8446 5.16821 -6.39192 12.0967 
-65.8136 95.8296 -94.0103 -2.64659 0.190384 104.092 -0.0138276 11.2502 18.6024 -61.1699 38.5257 -8.45142 -1.11972 3.87762 -12.1389 3.46323 1.16311 -12.7438 -31.8289 7.88637 66.7376 60.5041 19.7591 -2.88869 4.10105 4.92246 13.979 -7.58265 6.07619 11.5426 -4.84275 5.60779 -13.914 -1.19117 2.19626 -0.0460133 1.31741 -11.772 1.34227 8.55469 -25.2654 -15.2713 -23.02 60.9706 14.3755 5.71709 -4.36336 16.1709 
-67.5042 95.1395 -96.2287 -3.74911 -0.035694 104.733 0.650092 9.99028 17.8269 -60.7388 38.3853 -8.68103 -0.727648 3.83208 -12.8955 3.63434 1.24756 -12.8372 -32.7896 8.88763 65.7942 61.5687 18.4359 -6.49074 3.79627 4.87006 13.4061 -6.96581 5.62686 11.3811 -6.67966 4.66843 -13.003 -1.47717 0.939361 0.241674 3.73542 -13.2359 0.986118 12.954 -22.4892 -15.8237 -22.7054 57.8359 15.2118 4.22274 -3.12838 20.8394 
